<?xml version="1.0" encoding="utf-8"?>
<!-- Generator: Adobe Illustrator 21.0.0, SVG Export Plug-In . SVG Version: 6.00 Build 0)  -->
<svg version="1.1" id="Layer_1" xmlns="http://www.w3.org/2000/svg" xmlns:xlink="http://www.w3.org/1999/xlink" x="0px" y="0px"
	 viewBox="0 0 1280 2928" style="enable-background:new 0 0 1280 2928;" xml:space="preserve">
<style type="text/css">
	.st0{display:none;}
	.st1{display:inline;}
	.st2{fill:#004D71;}
	.st3{fill:none;stroke:#004D71;stroke-width:80;stroke-miterlimit:10;}
	.st4{fill:none;stroke:#FFFFFF;stroke-width:3;stroke-miterlimit:10;}
	.st5{fill:none;stroke:#FFFFFF;stroke-width:3;stroke-miterlimit:10;stroke-dasharray:16.0661,16.0661;}
</style>
<title>Asset 10</title>
<g id="Layer_2" class="st0">
	<g id="Layer_1-2" class="st1">
		<path class="st2" d="M264.6-0.4c0,0-30.5,0-39,0c-2.7,87.3-6.4,319.3,9.7,374.4c12.1,48.4,42.9,131.8,102.1,178.7
			c46.6,37.6,177.6,65.6,236.5,91.4c55.8,24.5,122.3,44.3,149.1,87.3c26.9,43,17.5,112.9,17.5,188.1c0,118.4-144.8,260-240.6,284.4
			c-74,18.8-150.6,38.4-211.5,77.1c-36.1,23-63.4,50.5-83.6,84.2c-24.9,41.8-38.2,92-39.2,149.5c-1.2,63.7,4.5,190.5,26.6,310.8
			c27.7,150.6,145.6,221.5,265.2,254.3c93.4,24.2,153.4,75.2,186.4,144.2c21,63,31.8,110.1,31.1,170.7l-23-1.5l61.9,140.9l59.7-133
			l-19.3-1.2c1.9-108.3-1.5-238.6-65.4-298.9c-51.2-48.4-90-96-211.2-144.4c-56.6-22.6-120-48.9-165-98.4
			c-48-54-70.1-223.1-67.7-339.5c0.7-34.4,9.5-79,72.7-119.2c52.8-33.6,125-52,194.7-69.7c66.8-17.1,129.9-33.1,179.5-62.2
			c111.9-76.8,142.8-260.7,152.2-360.1c8.1-85.9,16.7-170.5-13.4-204.2c-26.9-32.2-51.1-55.1-106.1-88.7s-134.9-48.8-194.3-74.8
			c-55.1-24.2-75.8-31.3-132.2-70.3s-88.7-79.3-100.8-137.1C290.4,285.3,262.7,0,264.6-0.4z"/>
	</g>
</g>
<path class="st3" d="M370,121c0,0,6.2,149.9,42.8,225.7c37,76.8,117,105,219,129c69.4,16.3,180.4,54.3,228,90c48,36,78,117,81,177
	c2.7,54.3,1,213.3-16.8,297.3c-21.4,101.4-60,147-115.5,192c-56.9,46.1-236.8,64.5-284.8,82.5s-153,39-180,111
	c-29,77.8-75.7,346.5,58.3,446.5c115.7,86.4,300,131.8,343.8,178.7c50,53.5,105.4,111.3,105.4,183.3s2.6,332,2.6,332"/>
<path class="st2" d="M330,123.5l80.3-2.5c-3-61-6.3-98-14.3-127h-51C338.5,19.5,329,61.7,330,123.5z"/>
<g>
	<g>
		<path class="st4" d="M371.7-0.3c-0.1,2.7-0.1,5.3-0.2,8"/>
		<path class="st5" d="M371.2,23.7c-2.6,154.2,6.7,263.2,41.6,323c43.1,73.6,117,105,219,129c69.4,16.3,180.4,54.3,228,90
			c48,36,78,117,81,177c2.7,54.3-4.4,170-13.8,255.3c-12,109.5-64.5,198-124.5,240s-228,63-276,81s-153,39-180,111
			c-29.1,77.7-58.7,319.5,29.4,417.9c86,96,238.2,112,346,182c61.4,39.9,129.3,121.3,129.3,193.3c0,63.9,2,260.4,2.5,341.5"/>
	</g>
</g>
<polygon class="st2" points="783.3,2566.3 928,2564.3 859.3,2698.3 "/>
</svg>
