<svg xmlns="http://www.w3.org/2000/svg" xmlns:xlink="http://www.w3.org/1999/xlink" viewBox="0 0 354.55 321.69"><defs><style>.cls-1{fill:none;}.cls-2{fill:#57c9e8;}.cls-3{isolation:isolate;}.cls-4{clip-path:url(#clip-path);}.cls-5{fill:#7b2a83;}.cls-6{fill:#f9f9f9;}</style><clipPath id="clip-path" transform="translate(-0.91 -4.89)"><polygon class="cls-1" points="4.53 239.96 0 0 351.85 43.2 356.38 283.17 4.53 239.96"/></clipPath></defs><title>Asset 12</title><g id="Layer_2" data-name="Layer 2"><g id="Layer_1-2" data-name="Layer 1"><rect class="cls-2" x="58.28" y="219.69" width="13.98" height="75"/><rect class="cls-2" x="270.29" y="246.69" width="13.98" height="75"/><g class="cls-3"><g class="cls-4"><path class="cls-5" d="M309.87,43.89,42.2,11C21.78,8.52,5.53,25.73,6,49.4L8.66,191.81c.45,23.67,17.42,45,37.85,47.47l267.67,32.87c20.42,2.51,36.67-14.7,36.23-38.37L347.71,91.36c-.45-23.67-17.42-45-37.85-47.47" transform="translate(-0.91 -4.89)"/><path class="cls-6" d="M46.51,239.28c-20.42-2.51-37.4-23.8-37.85-47.47L6,49.4C5.53,25.73,21.78,8.52,42.2,11L309.87,43.89c20.42,2.51,37.4,23.8,37.85,47.47l2.69,142.41c.45,23.67-15.8,40.88-36.23,38.37L46.51,239.28M309.76,38,42.09,5.17C18.89,2.32.41,21.89.92,48.78L3.61,191.19c.51,26.89,19.81,51.09,43,53.94L314.29,278c23.21,2.85,41.68-16.72,41.17-43.61L352.77,92c-.51-26.89-19.8-51.09-43-53.94" transform="translate(-0.91 -4.89)"/></g></g></g></g></svg>