<svg xmlns="http://www.w3.org/2000/svg" xmlns:xlink="http://www.w3.org/1999/xlink" viewBox="0 0 347.15 314.4"><defs><style>.cls-1{fill:none;}.cls-2{fill:#57c9e8;}.cls-3{isolation:isolate;}.cls-4{clip-path:url(#clip-path);}.cls-5{fill:#7b2a83;}.cls-6{fill:#f9f9f9;}</style><clipPath id="clip-path" transform="translate(-0.66 -3.44)"><polygon class="cls-1" points="0 273.67 3.29 30.2 348.48 0 345.18 243.47 0 273.67"/></clipPath></defs><title>Asset 11</title><g id="Layer_2" data-name="Layer 2"><g id="Layer_1-2" data-name="Layer 1"><rect class="cls-2" x="279.52" y="206.4" width="14.54" height="78"/><rect class="cls-2" x="49.09" y="227.4" width="16.22" height="87"/><g class="cls-3"><g class="cls-4"><path class="cls-5" d="M307.6,9.51,44,32.57C24.22,34.3,7.85,55.25,7.52,79.26l-2,144.5c-.32,24,15.52,42.14,35.32,40.41l263.58-23.06c19.79-1.73,36.16-22.68,36.49-46.69l2-144.5c.32-24-15.52-42.14-35.31-40.41" transform="translate(-0.66 -3.44)"/><path class="cls-6" d="M40.89,264.17c-19.8,1.73-35.64-16.39-35.32-40.41l2-144.5c.32-24,16.7-45,36.5-46.69L307.6,9.51c19.79-1.73,35.63,16.39,35.31,40.41l-2,144.5c-.32,24-16.7,45-36.49,46.69L40.89,264.17M307.68,3.57,44.1,26.63C21.6,28.6,3,52.4,2.62,79.69l-2,144.5C.3,251.47,18.3,272.07,40.81,270.1L304.39,247c22.5-2,41.1-25.77,41.47-53.05l2-144.5c.37-27.29-17.63-47.89-40.13-45.92" transform="translate(-0.66 -3.44)"/></g></g></g></g></svg>