<?xml version="1.0" encoding="utf-8"?>
<!-- Generator: Adobe Illustrator 18.1.1, SVG Export Plug-In . SVG Version: 6.00 Build 0)  -->
<!DOCTYPE svg PUBLIC "-//W3C//DTD SVG 1.1//EN" "http://www.w3.org/Graphics/SVG/1.1/DTD/svg11.dtd">
<svg version="1.1" id="Layer_1" xmlns="http://www.w3.org/2000/svg" xmlns:xlink="http://www.w3.org/1999/xlink" x="0px" y="0px"
	 viewBox="-460 0 1526 792" style="enable-background:new -460 0 1526 792;" xml:space="preserve">
<style type="text/css">
	.st0{opacity:0.12;clip-path:url(#SVGID_2_);}
	.st1{fill:#62B2A2;}
	.st2{fill:#FED800;}
	.st3{fill:#DF2228;}
	.st4{fill:none;stroke:#FED800;stroke-width:0.5404;stroke-miterlimit:10;}
</style>
<g>
	<defs>
		<rect id="SVGID_1_" x="-430.5" y="203" width="1563.8" height="417.2"/>
	</defs>
	<clipPath id="SVGID_2_">
		<use xlink:href="#SVGID_1_"  style="overflow:visible;"/>
	</clipPath>
	<g class="st0">
		<polygon class="st1" points="209,673.2 -54.5,407.9 -51.8,405.2 211.7,670.5 		"/>
		<polygon class="st1" points="199.9,683.1 -73.5,407.9 -70.8,405.2 202.6,680.5 		"/>
		<polygon class="st1" points="190,692.3 -92.6,407.9 -89.9,405.2 192.7,689.7 		"/>
		<polygon class="st1" points="181,702.5 -111.6,407.9 -108.9,405.2 183.7,699.8 		"/>
		<polygon class="st1" points="171.1,711.6 -130.6,407.9 -127.9,405.2 173.8,708.9 		"/>
		<polygon class="st1" points="161.5,721.1 -149.6,407.9 -146.9,405.2 164.2,718.4 		"/>
		<polygon class="st1" points="152.1,730.8 -168.6,407.9 -165.9,405.2 154.8,728.1 		"/>
		<polygon class="st1" points="142.8,740.5 -187.6,407.9 -184.9,405.2 145.4,737.8 		"/>
		<polygon class="st1" points="132.7,749.6 -206.6,407.9 -203.9,405.2 135.4,746.9 		"/>
		<polygon class="st1" points="123.8,759.8 -225.6,407.9 -223,405.2 126.5,757.1 		"/>
		<polygon class="st1" points="114.3,769.3 -244.7,407.9 -242,405.2 117,766.6 		"/>
		<polygon class="st1" points="104.9,778.9 -263.7,407.9 -261,405.2 107.6,776.2 		"/>
		<polygon class="st1" points="95,788.2 -282.7,407.9 -280,405.2 97.7,785.5 		"/>
		<polygon class="st1" points="85.4,797.6 -301.7,407.9 -299,405.2 88.1,794.9 		"/>
		<polygon class="st1" points="76.1,807.3 -320.7,407.9 -318,405.2 78.7,804.7 		"/>
		<polygon class="st1" points="66.3,816.7 -339.7,407.9 -337,405.2 69,814 		"/>
		<polygon class="st1" points="56.5,825.9 -358.7,407.9 -356,405.2 59.2,823.3 		"/>
		<polygon class="st1" points="47.4,835.9 -377.7,407.9 -375.1,405.2 50.1,833.3 		"/>
		<polygon class="st1" points="38.1,845.7 -396.8,407.9 -394.1,405.2 40.8,843 		"/>
		<g>
			<polygon class="st2" points="-132,673.1 -134.7,670.4 128.7,405.2 131.4,407.9 			"/>
			<polygon class="st2" points="-122.1,682.2 -124.8,679.6 147.7,405.2 150.4,407.9 			"/>
			<polygon class="st2" points="-112.2,691.4 -114.9,688.7 166.7,405.2 169.4,407.9 			"/>
			<polygon class="st2" points="-103.4,701.7 -106.1,699 185.8,405.2 188.4,407.9 			"/>
			<polygon class="st2" points="-93.5,710.9 -96.2,708.2 204.8,405.2 207.5,407.9 			"/>
			<polygon class="st2" points="-83.6,720 -86.3,717.4 223.8,405.2 226.5,407.9 			"/>
			<polygon class="st2" points="-74.4,729.9 -77.1,727.3 242.8,405.2 245.5,407.9 			"/>
			<polygon class="st2" points="-65.2,739.8 -67.9,737.2 261.8,405.2 264.5,407.9 			"/>
			<polygon class="st2" points="-55,748.7 -57.7,746 280.8,405.2 283.5,407.9 			"/>
			<polygon class="st2" points="-45.4,758.2 -48.1,755.5 299.8,405.2 302.5,407.9 			"/>
			<polygon class="st2" points="-36.3,768.1 -38.9,765.4 318.8,405.2 321.5,407.9 			"/>
			<polygon class="st2" points="-27.4,778.4 -30.1,775.7 337.9,405.2 340.5,407.9 			"/>
			<polygon class="st2" points="-18.3,788.3 -20.9,785.6 356.9,405.2 359.6,407.9 			"/>
			<polygon class="st2" points="-7.6,796.7 -10.3,794 375.9,405.2 378.6,407.9 			"/>
			<polygon class="st2" points="1.2,807 -1.5,804.3 394.9,405.2 397.6,407.9 			"/>
			<polygon class="st2" points="11.4,815.8 8.8,813.1 413.9,405.2 416.6,407.9 			"/>
			<polygon class="st2" points="20.6,825.7 17.9,823 432.9,405.2 435.6,407.9 			"/>
			<polygon class="st2" points="30.2,835.2 27.5,832.6 451.9,405.2 454.6,407.9 			"/>
			<polygon class="st2" points="40.1,844.4 37.4,841.7 470.9,405.2 473.6,407.9 			"/>
		</g>
		<g>
			<polygon class="st2" points="452.9,407.6 450.2,404.9 462.1,393 464.8,395.6 			"/>
			<polygon class="st2" points="435.4,408.1 432.7,405.4 453,385 455.6,387.7 			"/>
			<polygon class="st2" points="416.6,407.9 413.9,405.2 444.1,374.7 446.8,377.4 			"/>
			<polygon class="st2" points="397.2,408.2 394.5,405.6 434.2,365.5 436.9,368.2 			"/>
			<polygon class="st2" points="377.6,408.8 374.9,406.1 424.3,356.4 427,359.1 			"/>
			<polygon class="st2" points="359.9,407.5 357.2,404.8 415.2,346.5 417.9,349.1 			"/>
			<polygon class="st2" points="340.5,407.8 337.9,405.2 406,336.6 408.7,339.2 			"/>
			<polygon class="st2" points="321.9,407.5 319.2,404.8 395.7,327.7 398.4,330.4 			"/>
			<polygon class="st2" points="301.8,408.6 299.1,405.9 386.2,318.2 388.9,320.9 			"/>
			<polygon class="st2" points="283.3,408 280.6,405.3 377,308.3 379.7,311 			"/>
			<polygon class="st2" points="264,408.4 261.3,405.7 368.2,298 370.9,300.7 			"/>
			<polygon class="st2" points="245.3,408 242.6,405.3 359,288.1 361.7,290.8 			"/>
			<polygon class="st2" points="226.9,407.4 224.2,404.7 348.4,279.7 351.1,282.4 			"/>
			<polygon class="st2" points="207.1,408.2 204.4,405.5 339.6,269.4 342.3,272.1 			"/>
			<polygon class="st2" points="188.1,408.2 185.4,405.5 329.3,260.6 332,263.3 			"/>
			<polygon class="st2" points="169.9,407.4 167.2,404.7 320.1,250.7 322.8,253.4 			"/>
			<polygon class="st2" points="150.1,408.1 147.4,405.5 310.6,241.2 313.3,243.9 			"/>
			<polygon class="st2" points="130,409.3 127.3,406.6 300.7,232 303.4,234.7 			"/>
		</g>
		<g>
			<polygon class="st3" points="-394.1,936.9 -396.8,934.3 -134.7,670.4 -132,673.1 			"/>
			<polygon class="st3" points="-375.1,936.9 -377.7,934.3 -124.8,679.6 -122.1,682.2 			"/>
			<polygon class="st3" points="-356,936.9 -358.7,934.3 -114.9,688.7 -112.2,691.4 			"/>
			<polygon class="st3" points="-337,936.9 -339.7,934.3 -106.1,699 -103.4,701.7 			"/>
			<polygon class="st3" points="-318,936.9 -320.7,934.3 -96.2,708.2 -93.5,710.9 			"/>
			<polygon class="st3" points="-299,936.9 -301.7,934.3 -86.3,717.4 -83.6,720 			"/>
			<polygon class="st3" points="-280,936.9 -282.7,934.3 -77.1,727.3 -74.4,729.9 			"/>
			<polygon class="st3" points="-261,936.9 -263.7,934.3 -67.9,737.2 -65.2,739.8 			"/>
			<polygon class="st3" points="-242,936.9 -244.7,934.3 -57.7,746 -55,748.7 			"/>
			<polygon class="st3" points="-223,936.9 -225.6,934.3 -48.1,755.5 -45.4,758.2 			"/>
			<polygon class="st3" points="-203.9,936.9 -206.6,934.3 -38.9,765.4 -36.3,768.1 			"/>
			<polygon class="st3" points="-184.9,936.9 -187.6,934.3 -30.1,775.7 -27.4,778.4 			"/>
			<polygon class="st3" points="-165.9,936.9 -168.6,934.3 -20.9,785.6 -18.3,788.3 			"/>
			<polygon class="st3" points="-146.9,936.9 -149.6,934.3 -10.3,794 -7.6,796.7 			"/>
			<polygon class="st3" points="-127.9,936.9 -130.6,934.3 -1.5,804.3 1.2,807 			"/>
			<polygon class="st3" points="-108.9,936.9 -111.6,934.3 8.8,813.1 11.4,815.8 			"/>
			<polygon class="st3" points="-89.9,936.9 -92.6,934.3 17.9,823 20.6,825.7 			"/>
			<polygon class="st3" points="-70.8,936.9 -73.5,934.3 27.5,832.6 30.2,835.2 			"/>
			<polygon class="st3" points="-51.8,936.9 -54.5,934.3 37.4,841.7 40.1,844.4 			"/>
		</g>
		<polygon class="st2" points="743.2,681.8 471.1,407.9 473.8,405.2 745.8,679.1 		"/>
		<polygon class="st2" points="733.7,691.4 452.1,407.9 454.8,405.2 736.3,688.7 		"/>
		<polygon class="st2" points="724.2,701 433.1,407.9 435.8,405.2 726.9,698.3 		"/>
		<polygon class="st2" points="714.8,710.6 414.1,407.9 416.7,405.2 717.5,708 		"/>
		<polygon class="st2" points="705.5,720.4 395,407.9 397.7,405.2 708.1,717.7 		"/>
		<polygon class="st2" points="695.9,729.9 376,407.9 378.7,405.2 698.6,727.2 		"/>
		<polygon class="st2" points="685.4,738.5 357,407.9 359.7,405.2 688.1,735.8 		"/>
		<polygon class="st2" points="676.9,749.1 338,407.9 340.7,405.2 679.6,746.4 		"/>
		<polygon class="st2" points="666.4,757.6 319,407.9 321.7,405.2 669.1,755 		"/>
		<polygon class="st2" points="657,767.4 300,407.9 302.7,405.2 659.7,764.7 		"/>
		<polygon class="st2" points="648.1,777.5 281,407.9 283.7,405.2 650.7,774.8 		"/>
		<polygon class="st2" points="638.2,786.7 261.9,407.9 264.6,405.2 640.9,784.1 		"/>
		<polygon class="st2" points="628.4,796 242.9,407.9 245.6,405.2 631.1,793.3 		"/>
		<polygon class="st2" points="619.3,806 223.9,407.9 226.6,405.2 622,803.3 		"/>
		<polygon class="st2" points="609.9,815.6 204.9,407.9 207.6,405.2 612.6,812.9 		"/>
		<line class="st4" x1="612" y1="815" x2="611.2" y2="814.3"/>
		<polygon class="st2" points="601.5,826.3 185.9,407.9 188.6,405.2 604.2,823.7 		"/>
		<polygon class="st2" points="592.2,836.1 166.9,407.9 169.6,405.2 594.9,833.4 		"/>
		<polygon class="st2" points="582.6,845.6 147.9,407.9 150.6,405.2 585.3,842.9 		"/>
		<polygon class="st2" points="572.9,855 128.8,407.9 131.5,405.2 575.6,852.3 		"/>
		<polygon class="st3" points="402.1,682.1 399.4,679.4 671.7,405.2 674.4,407.9 		"/>
		<polygon class="st3" points="411.1,692.1 408.4,689.5 690.7,405.2 693.4,407.9 		"/>
		<polygon class="st3" points="420.6,701.7 417.9,699 709.8,405.2 712.5,407.9 		"/>
		<polygon class="st3" points="430.2,711.2 427.5,708.6 728.8,405.2 731.5,407.9 		"/>
		<polygon class="st3" points="439.7,720.8 437,718.1 747.8,405.2 750.5,407.9 		"/>
		<polygon class="st3" points="449.1,730.5 446.4,727.8 766.8,405.2 769.5,407.9 		"/>
		<polygon class="st3" points="458.1,740.6 455.4,737.9 785.8,405.2 788.5,407.9 		"/>
		<polygon class="st3" points="467.3,750.5 464.6,747.8 804.8,405.2 807.5,407.9 		"/>
		<polygon class="st3" points="478,758.7 475.3,756.1 823.8,405.2 826.5,407.9 		"/>
		<polygon class="st3" points="487.4,768.5 484.7,765.8 842.9,405.2 845.6,407.9 		"/>
		<polygon class="st3" points="497.3,777.6 494.6,775 861.9,405.2 864.6,407.9 		"/>
		<polygon class="st3" points="505.9,788.1 503.3,785.4 880.9,405.2 883.6,407.9 		"/>
		<polygon class="st3" points="515.3,797.8 512.6,795.1 899.9,405.2 902.6,407.9 		"/>
		<polygon class="st3" points="525.7,806.4 523,803.8 918.9,405.2 921.6,407.9 		"/>
		<polygon class="st3" points="534.4,816.9 531.7,814.2 937.9,405.2 940.6,407.9 		"/>
		<polygon class="st3" points="544.3,826.1 541.6,823.4 956.9,405.2 959.6,407.9 		"/>
		<polygon class="st3" points="553.3,836.1 550.6,833.5 976,405.2 978.6,407.9 		"/>
		<polygon class="st3" points="563.4,845.1 560.7,842.5 995,405.2 997.7,407.9 		"/>
		<polygon class="st3" points="572.7,854.9 570,852.2 1014,405.2 1016.7,407.9 		"/>
	</g>
</g>
</svg>
